<svg width="193" height="32" viewBox="0 0 193 32" fill="none" xmlns="http://www.w3.org/2000/svg">
<path d="M4.17838 31.3333H8.75317C9.57004 31.3333 10.2322 30.6872 10.2322 29.8902V23.5374V16.5411H2.69931V29.8902C2.69931 30.6872 3.36151 31.3333 4.17838 31.3333Z" fill="#FFB432"/>
<path d="M5.28768 0.666626H18.1687C21.5765 0.666626 24.3565 1.84006 26.4863 4.16477C28.6162 6.51163 29.6923 9.14632 29.6923 12.091C29.6923 15.102 28.5938 17.7588 26.4415 20.0614C24.2892 22.3861 21.4195 23.5374 17.8549 23.5374H10.2322C6.95163 23.5374 2.69931 20.0481 2.69931 16.5411V3.19212C2.69931 1.79733 3.85816 0.666626 5.28768 0.666626Z" fill="#129AFE"/>
<path d="M2.69931 16.5411L2.70063 16.5411L9.95995 16.5411C10.1103 16.5411 10.2322 16.6601 10.2322 16.8068V23.5374C6.95163 23.5374 2.69931 20.0481 2.69931 16.5411Z" fill="#0035FD"/>
<path d="M48.9759 8.15032V15.5458H40.4464V8.15032H36.7872V26.4982H40.4464V18.7957H48.9759V26.4982H52.6611V8.15032H48.9759Z" fill="#000D40"/>
<path d="M62.623 26.8692C64.2507 26.8692 65.6311 26.4982 66.764 25.7305C67.8969 24.9756 68.6913 24.0927 69.134 23.0947L65.9566 22.1735C65.3316 23.3506 64.2377 23.9264 62.6751 23.9264C61.5031 23.9264 60.5785 23.6577 59.9274 23.1075C59.2633 22.5574 58.8726 21.828 58.7554 20.9196H69.2382C69.2903 20.6381 69.3163 20.2287 69.3163 19.6913C69.3163 17.7337 68.6913 16.1087 67.4411 14.8164C66.191 13.5242 64.4982 12.8716 62.3495 12.8716C60.253 12.8716 58.5471 13.537 57.2449 14.8676C55.9427 16.1983 55.2916 17.8616 55.2916 19.8704C55.2916 21.9688 55.9687 23.6705 57.323 24.95C58.6773 26.2295 60.4483 26.8692 62.623 26.8692ZM58.7554 18.7445C58.8596 17.9512 59.2242 17.2603 59.8753 16.6717C60.5264 16.0959 61.3338 15.8017 62.3235 15.8017C63.3392 15.8017 64.1596 16.0831 64.7977 16.6461C65.4227 17.2091 65.7873 17.9128 65.8785 18.7445H58.7554Z" fill="#000D40"/>
<path d="M81.2966 13.2427L77.5332 22.1991L73.5355 13.2427H69.6679L75.7753 26.2039L73.3271 32H76.9473L85.06 13.2427H81.2966Z" fill="#000D40"/>
<path d="M95.6469 8.15032H86.8961V26.4982H90.5293V20.894H95.4907C97.5091 20.894 99.1238 20.2543 100.322 18.9748C101.52 17.6953 102.132 16.2111 102.132 14.5222C102.132 12.8844 101.533 11.413 100.335 10.1079C99.1368 8.80285 97.5742 8.15032 95.6469 8.15032ZM95.3735 17.6953H90.5293V11.4002H95.5428C96.4022 11.4002 97.1315 11.7201 97.7044 12.347C98.2774 12.9868 98.5769 13.7161 98.5769 14.5478C98.5769 15.3922 98.2774 16.1215 97.6784 16.7485C97.0794 17.3882 96.3111 17.6953 95.3735 17.6953Z" fill="#000D40"/>
<path d="M107.653 15.2003V13.2427H104.137V26.4982H107.653V20.7277C107.653 18.9876 108.018 17.7593 108.773 17.0428C109.515 16.3262 110.622 16.0703 112.107 16.3007V13.0508C110.023 12.7693 108.539 13.4858 107.653 15.2003Z" fill="#000D40"/>
<path d="M119.49 26.8692C121.339 26.8692 122.785 26.2039 123.827 24.8732V26.4982H127.382V13.2427H123.827V14.842C122.785 13.537 121.339 12.8716 119.49 12.8716C117.602 12.8716 116.013 13.537 114.737 14.8676C113.461 16.1983 112.823 17.8616 112.823 19.8704C112.823 21.8664 113.461 23.5298 114.737 24.8604C116.013 26.2039 117.602 26.8692 119.49 26.8692ZM120.102 23.7729C118.995 23.7729 118.084 23.4146 117.381 22.6725C116.665 21.9432 116.313 20.9964 116.313 19.8448C116.313 18.7189 116.665 17.7849 117.381 17.0556C118.084 16.339 118.995 15.968 120.102 15.968C121.183 15.968 122.095 16.339 122.837 17.0683C123.566 17.8105 123.944 18.7317 123.944 19.8448C123.944 20.9836 123.566 21.9176 122.837 22.6597C122.095 23.4018 121.183 23.7729 120.102 23.7729Z" fill="#000D40"/>
<path d="M137.187 26.8692C138.906 26.8692 140.352 26.4342 141.524 25.5641C142.696 24.6941 143.425 23.6833 143.737 22.5446L140.456 21.6489C140.3 22.2375 139.909 22.7365 139.31 23.1459C138.698 23.5681 137.982 23.7729 137.148 23.7729C136.067 23.7729 135.182 23.389 134.505 22.6085C133.815 21.8408 133.476 20.9196 133.476 19.8448C133.476 18.7701 133.815 17.8488 134.492 17.0811C135.169 16.3262 136.054 15.9424 137.148 15.9424C137.982 15.9424 138.711 16.1599 139.31 16.5949C139.909 17.03 140.3 17.5546 140.456 18.1431L143.737 17.2219C143.438 16.1087 142.696 15.1107 141.511 14.2151C140.326 13.3194 138.867 12.8716 137.148 12.8716C135.104 12.8716 133.398 13.537 132.044 14.8676C130.689 16.1983 130.012 17.8488 130.012 19.8448C130.012 21.8408 130.689 23.5042 132.044 24.8476C133.398 26.2039 135.117 26.8692 137.187 26.8692Z" fill="#000D40"/>
<path d="M154.012 23.2739C153.517 23.5298 152.983 23.6449 152.41 23.6449C151.303 23.6449 150.756 23.0947 150.756 21.9688V16.2751H154.702V13.2427H150.756V8.9436H147.214V13.2427H144.948V16.2751H147.214V21.9688C147.214 23.453 147.592 24.6173 148.347 25.449C149.103 26.2935 150.222 26.7029 151.72 26.7029C152.749 26.7029 153.803 26.4982 154.871 26.0759L154.012 23.2739Z" fill="#000D40"/>
<path d="M159.077 11.3746C159.663 11.3746 160.158 11.1827 160.575 10.7989C160.979 10.415 161.187 9.9288 161.187 9.34024C161.187 8.77727 160.979 8.30385 160.575 7.92001C160.158 7.53616 159.663 7.34424 159.077 7.34424C158.491 7.34424 157.997 7.53616 157.593 7.92001C157.176 8.30385 156.981 8.77727 156.981 9.34024C156.981 9.91601 157.176 10.4022 157.593 10.7861C157.997 11.1827 158.491 11.3746 159.077 11.3746ZM157.267 26.4982H160.809V13.2427H157.267V26.4982Z" fill="#000D40"/>
<path d="M170.68 26.8692C172.399 26.8692 173.844 26.4342 175.016 25.5641C176.188 24.6941 176.918 23.6833 177.23 22.5446L173.949 21.6489C173.792 22.2375 173.402 22.7365 172.803 23.1459C172.191 23.5681 171.474 23.7729 170.641 23.7729C169.56 23.7729 168.675 23.389 167.998 22.6085C167.307 21.8408 166.969 20.9196 166.969 19.8448C166.969 18.7701 167.307 17.8488 167.985 17.0811C168.662 16.3262 169.547 15.9424 170.641 15.9424C171.474 15.9424 172.204 16.1599 172.803 16.5949C173.402 17.03 173.792 17.5546 173.949 18.1431L177.23 17.2219C176.931 16.1087 176.188 15.1107 175.003 14.2151C173.818 13.3194 172.36 12.8716 170.641 12.8716C168.597 12.8716 166.891 13.537 165.536 14.8676C164.182 16.1983 163.505 17.8488 163.505 19.8448C163.505 21.8408 164.182 23.5042 165.536 24.8476C166.891 26.2039 168.61 26.8692 170.68 26.8692Z" fill="#000D40"/>
<path d="M186.307 26.8692C187.934 26.8692 189.315 26.4982 190.448 25.7305C191.58 24.9756 192.375 24.0927 192.818 23.0947L189.64 22.1735C189.015 23.3506 187.921 23.9264 186.359 23.9264C185.187 23.9264 184.262 23.6577 183.611 23.1075C182.947 22.5574 182.556 21.828 182.439 20.9196H192.922C192.974 20.6381 193 20.2287 193 19.6913C193 17.7337 192.375 16.1087 191.125 14.8164C189.875 13.5242 188.182 12.8716 186.033 12.8716C183.937 12.8716 182.231 13.537 180.928 14.8676C179.626 16.1983 178.975 17.8616 178.975 19.8704C178.975 21.9688 179.652 23.6705 181.007 24.95C182.361 26.2295 184.132 26.8692 186.307 26.8692ZM182.439 18.7445C182.543 17.9512 182.908 17.2603 183.559 16.6717C184.21 16.0959 185.017 15.8017 186.007 15.8017C187.023 15.8017 187.843 16.0831 188.481 16.6461C189.106 17.2091 189.471 17.9128 189.562 18.7445H182.439Z" fill="#000D40"/>
</svg>
