<svg width="32" height="32" viewBox="0 0 32 32" fill="none" xmlns="http://www.w3.org/2000/svg">
<path d="M4.12781 31.3333H8.6473C9.45429 31.3333 10.1085 30.6872 10.1085 29.8902V23.5374V16.5411H2.66663V29.8902C2.66663 30.6872 3.32082 31.3333 4.12781 31.3333Z" fill="#FFB432"/>
<path d="M5.2237 0.666626H17.949C21.3156 0.666626 24.062 1.84006 26.1661 4.16477C28.2702 6.51163 29.3333 9.14632 29.3333 12.091C29.3333 15.102 28.248 17.7588 26.1218 20.0614C23.9955 22.3861 21.1605 23.5374 17.6389 23.5374H10.1085C6.86754 23.5374 2.66663 20.0481 2.66663 16.5411V3.19212C2.66663 1.79733 3.81147 0.666626 5.2237 0.666626Z" fill="#129AFE"/>
<path d="M2.66663 16.5411L2.66793 16.5411L9.83948 16.5411C9.98805 16.5411 10.1085 16.6601 10.1085 16.8068V23.5374C6.86754 23.5374 2.66663 20.0481 2.66663 16.5411Z" fill="#0035FD"/>
</svg>
