<svg width="194" height="33" viewBox="0 0 194 33" fill="none" xmlns="http://www.w3.org/2000/svg">
<path d="M4.20002 32.3125H8.79852C9.61962 32.3125 10.2853 31.6462 10.2853 30.8243V24.273V17.0581H2.71329V30.8243C2.71329 31.6462 3.37892 32.3125 4.20002 32.3125Z" fill="#FFB432"/>
<path d="M5.31507 0.6875H18.2629C21.6883 0.6875 24.4827 1.8976 26.6236 4.29497C28.7644 6.71516 29.8462 9.43218 29.8462 12.4688C29.8462 15.574 28.7419 18.3139 26.5785 20.6884C24.4151 23.0858 21.5305 24.273 17.9474 24.273H10.2853C6.98764 24.273 2.71329 20.6747 2.71329 17.0581V3.29191C2.71329 1.85353 3.87814 0.6875 5.31507 0.6875Z" fill="#129AFE"/>
<path d="M2.71329 17.0581L2.71461 17.0581L10.0115 17.0581C10.1627 17.0581 10.2853 17.1808 10.2853 17.3321V24.273C6.98764 24.273 2.71329 20.6747 2.71329 17.0581Z" fill="#0035FD"/>
<path d="M49.2296 8.405V16.0315H40.656V8.405H36.9778V27.3262H40.656V19.383H49.2296V27.3262H52.934V8.405H49.2296Z" fill="#000D40"/>
<path d="M62.9475 27.7089C64.5836 27.7089 65.9711 27.3262 67.1099 26.5345C68.2487 25.7561 69.0472 24.8456 69.4922 23.8164L66.2984 22.8664C65.6701 24.0803 64.5706 24.6741 62.9998 24.6741C61.8218 24.6741 60.8924 24.397 60.2379 23.8296C59.5704 23.2623 59.1777 22.5102 59.0599 21.5733H69.5969C69.6493 21.283 69.6755 20.8608 69.6755 20.3066C69.6755 18.2878 69.0472 16.6121 67.7906 15.2794C66.534 13.9468 64.8323 13.2738 62.6726 13.2738C60.5652 13.2738 58.8504 13.96 57.5415 15.3322C56.2325 16.7045 55.578 18.4198 55.578 20.4914C55.578 22.6553 56.2587 24.4102 57.62 25.7297C58.9813 27.0491 60.7615 27.7089 62.9475 27.7089ZM59.0599 19.3302C59.1646 18.5122 59.5311 17.7996 60.1856 17.1927C60.84 16.5989 61.6516 16.2954 62.6464 16.2954C63.6674 16.2954 64.492 16.5857 65.1334 17.1663C65.7617 17.7469 66.1282 18.4726 66.2198 19.3302H59.0599Z" fill="#000D40"/>
<path d="M81.7179 13.6565L77.935 22.8928L73.9165 13.6565H70.0289L76.1679 27.0227L73.7071 33H77.3459L85.5007 13.6565H81.7179Z" fill="#000D40"/>
<path d="M96.1425 8.405H87.3464V27.3262H90.9983V21.5469H95.9854C98.0143 21.5469 99.6374 20.8872 100.842 19.5677C102.046 18.2483 102.661 16.7177 102.661 14.976C102.661 13.287 102.059 11.7697 100.855 10.4238C99.6505 9.07793 98.0798 8.405 96.1425 8.405ZM95.8676 18.2483H90.9983V11.7565H96.0378C96.9017 11.7565 97.6347 12.0863 98.2107 12.7329C98.7866 13.3926 99.0877 14.1447 99.0877 15.0024C99.0877 15.8732 98.7866 16.6253 98.1845 17.2719C97.5824 17.9316 96.8101 18.2483 95.8676 18.2483Z" fill="#000D40"/>
<path d="M108.211 15.6753V13.6565H104.677V27.3262H108.211V21.3754C108.211 19.5809 108.578 18.3142 109.337 17.5753C110.083 16.8364 111.195 16.5725 112.688 16.81V13.4586C110.593 13.1683 109.101 13.9072 108.211 15.6753Z" fill="#000D40"/>
<path d="M120.109 27.7089C121.968 27.7089 123.421 27.0227 124.468 25.6505V27.3262H128.042V13.6565H124.468V15.3058C123.421 13.96 121.968 13.2738 120.109 13.2738C118.211 13.2738 116.615 13.96 115.332 15.3322C114.049 16.7045 113.408 18.4198 113.408 20.4914C113.408 22.5497 114.049 24.2651 115.332 25.6373C116.615 27.0227 118.211 27.7089 120.109 27.7089ZM120.725 24.5158C119.612 24.5158 118.696 24.1463 117.989 23.381C117.269 22.6289 116.916 21.6525 116.916 20.465C116.916 19.3038 117.269 18.3406 117.989 17.5885C118.696 16.8496 119.612 16.467 120.725 16.467C121.811 16.467 122.727 16.8496 123.473 17.6017C124.206 18.367 124.586 19.317 124.586 20.465C124.586 21.6393 124.206 22.6025 123.473 23.3678C122.727 24.1331 121.811 24.5158 120.725 24.5158Z" fill="#000D40"/>
<path d="M137.898 27.7089C139.626 27.7089 141.079 27.2603 142.257 26.363C143.435 25.4658 144.168 24.4234 144.482 23.2491L141.184 22.3254C141.027 22.9324 140.634 23.447 140.032 23.8692C139.417 24.3046 138.697 24.5158 137.859 24.5158C136.772 24.5158 135.882 24.1199 135.202 23.315C134.508 22.5233 134.168 21.5733 134.168 20.465C134.168 19.3566 134.508 18.4066 135.189 17.6149C135.869 16.8364 136.759 16.4406 137.859 16.4406C138.697 16.4406 139.43 16.6649 140.032 17.1135C140.634 17.5621 141.027 18.1031 141.184 18.7101L144.482 17.7601C144.181 16.6121 143.435 15.5829 142.244 14.6593C141.053 13.7357 139.587 13.2738 137.859 13.2738C135.804 13.2738 134.089 13.96 132.728 15.3322C131.366 16.7045 130.686 18.4066 130.686 20.465C130.686 22.5233 131.366 24.2387 132.728 25.6241C134.089 27.0227 135.817 27.7089 137.898 27.7089Z" fill="#000D40"/>
<path d="M154.81 24.0012C154.312 24.2651 153.776 24.3838 153.2 24.3838C152.087 24.3838 151.537 23.8164 151.537 22.6553V16.7836H155.504V13.6565H151.537V9.22307H147.977V13.6565H145.7V16.7836H147.977V22.6553C147.977 24.1859 148.357 25.3866 149.116 26.2443C149.875 27.1151 151.001 27.5373 152.506 27.5373C153.54 27.5373 154.6 27.3262 155.674 26.8908L154.81 24.0012Z" fill="#000D40"/>
<path d="M159.902 11.7301C160.491 11.7301 160.988 11.5321 161.407 11.1363C161.813 10.7405 162.022 10.2391 162.022 9.63211C162.022 9.05154 161.813 8.56333 161.407 8.16749C160.988 7.77165 160.491 7.57373 159.902 7.57373C159.313 7.57373 158.815 7.77165 158.409 8.16749C157.991 8.56333 157.794 9.05154 157.794 9.63211C157.794 10.2259 157.991 10.7273 158.409 11.1231C158.815 11.5321 159.313 11.7301 159.902 11.7301ZM158.082 27.3262H161.643V13.6565H158.082V27.3262Z" fill="#000D40"/>
<path d="M171.564 27.7089C173.292 27.7089 174.745 27.2603 175.923 26.363C177.101 25.4658 177.834 24.4234 178.148 23.2491L174.85 22.3254C174.693 22.9324 174.3 23.447 173.698 23.8692C173.083 24.3046 172.363 24.5158 171.525 24.5158C170.439 24.5158 169.549 24.1199 168.868 23.315C168.174 22.5233 167.834 21.5733 167.834 20.465C167.834 19.3566 168.174 18.4066 168.855 17.6149C169.536 16.8364 170.426 16.4406 171.525 16.4406C172.363 16.4406 173.096 16.6649 173.698 17.1135C174.3 17.5621 174.693 18.1031 174.85 18.7101L178.148 17.7601C177.847 16.6121 177.101 15.5829 175.91 14.6593C174.719 13.7357 173.253 13.2738 171.525 13.2738C169.47 13.2738 167.755 13.96 166.394 15.3322C165.033 16.7045 164.352 18.4066 164.352 20.465C164.352 22.5233 165.033 24.2387 166.394 25.6241C167.755 27.0227 169.483 27.7089 171.564 27.7089Z" fill="#000D40"/>
<path d="M187.272 27.7089C188.908 27.7089 190.296 27.3262 191.434 26.5345C192.573 25.7561 193.372 24.8456 193.817 23.8164L190.623 22.8664C189.995 24.0803 188.895 24.6741 187.324 24.6741C186.146 24.6741 185.217 24.397 184.562 23.8296C183.895 23.2623 183.502 22.5102 183.384 21.5733H193.921C193.974 21.283 194 20.8608 194 20.3066C194 18.2878 193.372 16.6121 192.115 15.2794C190.858 13.9468 189.157 13.2738 186.997 13.2738C184.89 13.2738 183.175 13.96 181.866 15.3322C180.557 16.7045 179.902 18.4198 179.902 20.4914C179.902 22.6553 180.583 24.4102 181.944 25.7297C183.306 27.0491 185.086 27.7089 187.272 27.7089ZM183.384 19.3302C183.489 18.5122 183.856 17.7996 184.51 17.1927C185.164 16.5989 185.976 16.2954 186.971 16.2954C187.992 16.2954 188.816 16.5857 189.458 17.1663C190.086 17.7469 190.453 18.4726 190.544 19.3302H183.384Z" fill="#000D40"/>
</svg>
