<svg width="20" height="18" viewBox="0 0 20 18" fill="none" xmlns="http://www.w3.org/2000/svg">
<path d="M11.4081 0.343577C11.0748 0.0261468 10.5474 0.0389734 10.2299 0.372225C9.9125 0.705477 9.92533 1.23296 10.2586 1.55039L17.2044 8.16649H0.833333C0.373096 8.16649 0 8.53959 0 8.99982C0 9.46006 0.373096 9.83316 0.833333 9.83316H17.2048L10.2586 16.4496C9.92533 16.7671 9.9125 17.2945 10.2299 17.6278C10.5474 17.961 11.0748 17.9739 11.4081 17.6564L19.6514 9.80455C19.8392 9.62564 19.9503 9.3974 19.9846 9.16013C19.9947 9.10826 20 9.05466 20 8.99982C20 8.94461 19.9946 8.89064 19.9844 8.83843C19.9498 8.60169 19.8388 8.37401 19.6514 8.19547L11.4081 0.343577Z" fill="#129AFE"/>
</svg>
