<svg width="22" height="21" viewBox="0 0 22 21" fill="none" xmlns="http://www.w3.org/2000/svg">
<path d="M11 -0.000976562C16.5237 -0.000976562 21.0015 4.47687 21.0015 10.0006C21.0015 15.5243 16.5237 20.0021 11 20.0021C5.47629 20.0021 0.998444 15.5243 0.998444 10.0006C0.998444 4.47687 5.47629 -0.000976562 11 -0.000976562ZM13.9389 14.5003H8.06109C8.71313 16.9144 9.84648 18.5021 11 18.5021C12.1535 18.5021 13.2869 16.9144 13.9389 14.5003ZM6.5083 14.5009L3.78582 14.5007C4.74416 16.0338 6.1776 17.2394 7.87999 17.9114C7.35771 17.0915 6.92672 16.0653 6.60972 14.8959L6.5083 14.5009ZM18.2142 14.5007L15.4917 14.5009C15.1679 15.8346 14.7003 17.0004 14.1189 17.9114C15.7159 17.2814 17.0756 16.1824 18.029 14.7843L18.2142 14.5007ZM6.09342 7.99992H2.73581L2.73105 8.01713C2.57897 8.65348 2.49844 9.31763 2.49844 10.0006C2.49844 11.0567 2.69103 12.0679 3.04301 13.0009L6.21617 13.0005C6.07387 12.0514 5.99844 11.0432 5.99844 10.0006C5.99844 9.31656 6.03091 8.64736 6.09342 7.99992ZM14.3969 7.99999H7.60307C7.53505 8.64025 7.49844 9.30997 7.49844 10.0006C7.49844 11.0601 7.58459 12.0704 7.73818 13.0007H14.2618C14.4154 12.0704 14.5015 11.0601 14.5015 10.0006C14.5015 9.30997 14.4649 8.64025 14.3969 7.99999ZM19.2646 7.99909L15.9066 7.99994C15.9691 8.64736 16.0015 9.31656 16.0015 10.0006C16.0015 11.0432 15.9261 12.0514 15.7838 13.0005L18.957 13.0009C19.309 12.0679 19.5015 11.0567 19.5015 10.0006C19.5015 9.31117 19.4195 8.64093 19.2646 7.99909ZM7.88104 2.08973L7.85814 2.09844C5.81082 2.91315 4.15481 4.50046 3.25014 6.50033L6.29826 6.50069C6.61162 4.7479 7.15846 3.22198 7.88104 2.08973ZM11 1.49902L10.8843 1.50432C9.6189 1.62008 8.39642 3.62205 7.82871 6.50027H14.1713C13.6052 3.63011 12.3879 1.63131 11.1263 1.50534L11 1.49902ZM14.12 2.08979L14.2268 2.26388C14.896 3.37635 15.4042 4.83623 15.7017 6.50069L18.7498 6.50033C17.8852 4.58892 16.3342 3.05439 14.4112 2.21106L14.12 2.08979Z" fill="white"/>
</svg>
